<svg width="24" height="24" viewBox="0 0 24 24" fill="none" xmlns="http://www.w3.org/2000/svg">
<path opacity="0.4" d="M10.4899 2.22896L5.49991 4.09896C4.34991 4.52896 3.40991 5.88896 3.40991 7.11896V14.549C3.40991 15.729 4.18991 17.279 5.13991 17.989L9.43991 21.199C10.8499 22.259 13.1699 22.259 14.5799 21.199L18.8799 17.989C19.8299 17.279 20.6099 15.729 20.6099 14.549V7.11896C20.6099 5.88896 19.6699 4.52896 18.5199 4.09896L13.5299 2.22896C12.6799 1.91896 11.3199 1.91896 10.4899 2.22896Z" fill="#25DA67"/>
<path d="M11.8999 11.301H11.9999C13.1499 11.261 14.0499 10.331 14.0599 9.17101C14.0599 7.99101 13.0999 7.03101 11.9199 7.03101C10.7399 7.03101 9.77991 7.99101 9.77991 9.17101C9.79991 10.321 10.6999 11.261 11.8999 11.301ZM14.1899 13.412C12.9799 12.612 11.0199 12.612 9.79991 13.412C9.23991 13.792 8.90991 14.332 8.90991 14.892C8.90991 15.462 9.22991 15.982 9.79991 16.362C10.4099 16.762 11.1999 16.972 11.9899 16.972C12.7799 16.972 13.5799 16.772 14.1799 16.362C14.7399 15.982 15.0699 15.442 15.0699 14.882C15.0799 14.312 14.7599 13.792 14.1899 13.412Z" fill="#25DA67"/>
</svg>
