<svg width="24" height="24" viewBox="0 0 24 24" fill="none" xmlns="http://www.w3.org/2000/svg">
<path opacity="0.4" d="M20.04 6.82189L14.28 2.79189C12.71 1.69189 10.3 1.75189 8.78999 2.92189L3.77999 6.83189C2.77999 7.61189 1.98999 9.21189 1.98999 10.4719V17.3719C1.98999 19.9219 4.05999 22.0019 6.60999 22.0019H17.39C19.94 22.0019 22.01 19.9319 22.01 17.3819V10.6019C22.01 9.25189 21.14 7.59189 20.04 6.82189Z" fill="#282828"/>
<path d="M12 18.75C11.59 18.75 11.25 18.41 11.25 18V15C11.25 14.59 11.59 14.25 12 14.25C12.41 14.25 12.75 14.59 12.75 15V18C12.75 18.41 12.41 18.75 12 18.75Z" fill="#282828"/>
</svg>
