<svg width="223" height="131" viewBox="0 0 223 131" fill="none" xmlns="http://www.w3.org/2000/svg">
<path d="M20.9999 37.0001C20.9999 25.4021 30.402 16.0001 41.9999 16.0001H181C192.598 16.0001 202 25.4021 202 37.0001V97.0001C202 108.598 192.598 118 181 118H41.9999C30.402 118 20.9999 108.598 20.9999 97.0001V37.0001Z" fill="#3E3E3E"/>
<path d="M98.4707 38.25V57H95.6387V38.25H98.4707ZM97.9702 49.9199H97.0669C97.0588 49.0003 97.1564 48.154 97.3599 47.3809C97.5633 46.6077 97.8563 45.9323 98.2388 45.3545C98.6213 44.7767 99.0811 44.3332 99.6182 44.0239C100.163 43.7065 100.766 43.5479 101.425 43.5479C101.97 43.5479 102.462 43.6414 102.902 43.8286C103.349 44.0076 103.732 44.2925 104.049 44.6831C104.375 45.0737 104.623 45.5864 104.794 46.2212C104.965 46.8478 105.05 47.6128 105.05 48.5161V57H102.206V48.4917C102.206 47.8651 102.137 47.3687 101.999 47.0024C101.868 46.6362 101.673 46.3717 101.413 46.209C101.152 46.0462 100.823 45.9648 100.424 45.9648C100.033 45.9648 99.6833 46.0706 99.374 46.2822C99.0648 46.4857 98.8044 46.7705 98.5928 47.1367C98.3893 47.4948 98.2347 47.9139 98.1289 48.394C98.0231 48.866 97.9702 49.3747 97.9702 49.9199ZM112.936 57.2441C112.082 57.2441 111.321 57.118 110.653 56.8657C109.986 56.6053 109.42 56.2228 108.957 55.7183C108.493 55.2056 108.139 54.5789 107.895 53.8384C107.65 53.0897 107.528 52.223 107.528 51.2383V49.9688C107.528 48.8538 107.654 47.8936 107.907 47.0879C108.167 46.2741 108.525 45.6068 108.981 45.0859C109.437 44.5651 109.974 44.1785 110.592 43.9263C111.219 43.674 111.898 43.5479 112.631 43.5479C113.461 43.5479 114.181 43.6821 114.792 43.9507C115.402 44.2192 115.902 44.6221 116.293 45.1592C116.692 45.6963 116.985 46.3595 117.172 47.1489C117.367 47.9383 117.465 48.8457 117.465 49.8711V51.2993H108.896V49.1509H114.657V48.8457C114.641 48.2435 114.568 47.7267 114.438 47.2954C114.307 46.856 114.096 46.5223 113.803 46.2944C113.518 46.0584 113.123 45.9404 112.619 45.9404C112.252 45.9404 111.927 46.0096 111.642 46.1479C111.357 46.2863 111.121 46.5101 110.934 46.8193C110.755 47.1286 110.617 47.5436 110.519 48.0645C110.421 48.5771 110.373 49.2119 110.373 49.9688V51.2383C110.373 51.8975 110.43 52.4549 110.543 52.9106C110.666 53.3664 110.845 53.7407 111.081 54.0337C111.317 54.3185 111.601 54.5301 111.935 54.6685C112.277 54.7987 112.672 54.8638 113.119 54.8638C113.778 54.8638 114.344 54.7417 114.816 54.4976C115.296 54.2453 115.711 53.9198 116.061 53.521L117.318 55.2666C117.082 55.584 116.765 55.8973 116.366 56.2065C115.967 56.5076 115.483 56.7559 114.914 56.9512C114.352 57.1465 113.693 57.2441 112.936 57.2441ZM125.875 54.3145V47.7349C125.875 47.2791 125.81 46.9129 125.68 46.6362C125.558 46.3595 125.375 46.1602 125.131 46.0381C124.895 45.9079 124.598 45.8428 124.24 45.8428C123.865 45.8428 123.548 45.9201 123.288 46.0747C123.035 46.2293 122.844 46.4409 122.714 46.7095C122.584 46.9699 122.519 47.271 122.519 47.6128H119.674C119.674 47.0838 119.78 46.5752 119.992 46.0869C120.211 45.5986 120.525 45.1632 120.932 44.7808C121.339 44.3983 121.831 44.0972 122.409 43.8774C122.986 43.6577 123.629 43.5479 124.337 43.5479C125.184 43.5479 125.937 43.6903 126.596 43.9751C127.255 44.2518 127.772 44.7035 128.146 45.3301C128.528 45.9486 128.72 46.7624 128.72 47.7715V53.936C128.72 54.5464 128.756 55.0916 128.83 55.5718C128.911 56.0438 129.021 56.4548 129.159 56.8047V57H126.266C126.136 56.6826 126.038 56.2757 125.973 55.7793C125.908 55.2829 125.875 54.7946 125.875 54.3145ZM126.254 48.9556L126.266 50.7988H124.899C124.492 50.7988 124.126 50.8558 123.8 50.9697C123.475 51.0755 123.198 51.2301 122.97 51.4336C122.75 51.6289 122.58 51.869 122.458 52.1538C122.344 52.4386 122.287 52.752 122.287 53.0938C122.287 53.5088 122.344 53.8465 122.458 54.1069C122.58 54.3674 122.755 54.5627 122.982 54.6929C123.218 54.8149 123.503 54.876 123.837 54.876C124.293 54.876 124.687 54.7783 125.021 54.583C125.363 54.3796 125.623 54.1354 125.802 53.8506C125.989 53.5658 126.063 53.3053 126.022 53.0693L126.669 54.2534C126.604 54.5627 126.482 54.8882 126.303 55.23C126.132 55.5718 125.908 55.8973 125.631 56.2065C125.355 56.5158 125.021 56.7681 124.63 56.9634C124.24 57.1506 123.788 57.2441 123.275 57.2441C122.535 57.2441 121.876 57.0895 121.298 56.7803C120.72 56.471 120.264 56.0275 119.931 55.4497C119.605 54.8638 119.442 54.1639 119.442 53.3501C119.442 52.6909 119.552 52.0928 119.772 51.5557C119.992 51.0186 120.317 50.5588 120.749 50.1763C121.18 49.7856 121.721 49.4845 122.372 49.2729C123.031 49.0614 123.8 48.9556 124.679 48.9556H126.254ZM136.972 43.792V45.9893H130.49V43.792H136.972ZM132.26 40.5571H135.092V53.3135C135.092 53.7204 135.137 54.0296 135.226 54.2412C135.316 54.4528 135.442 54.5952 135.604 54.6685C135.767 54.7417 135.958 54.7783 136.178 54.7783C136.341 54.7783 136.5 54.7661 136.654 54.7417C136.817 54.7091 136.935 54.6807 137.008 54.6562V56.9512C136.797 57.0326 136.553 57.1017 136.276 57.1587C135.999 57.2157 135.666 57.2441 135.275 57.2441C134.697 57.2441 134.18 57.1261 133.725 56.8901C133.269 56.646 132.911 56.2513 132.65 55.7061C132.39 55.1527 132.26 54.4202 132.26 53.5088V40.5571ZM83.6147 80.2017H86.5688C86.5119 81.4875 86.2515 82.582 85.7876 83.4854C85.3237 84.3805 84.6564 85.0641 83.7856 85.5361C82.923 86.0081 81.8691 86.2441 80.624 86.2441C79.68 86.2441 78.8337 86.0732 78.085 85.7314C77.3444 85.3896 76.7137 84.8973 76.1929 84.2544C75.672 83.6034 75.2733 82.8099 74.9966 81.874C74.728 80.9382 74.5938 79.8761 74.5938 78.688V75.5386C74.5938 74.3504 74.7321 73.2884 75.0088 72.3525C75.2936 71.4167 75.7005 70.6232 76.2295 69.9722C76.7585 69.3211 77.4014 68.8288 78.1582 68.4951C78.9232 68.1533 79.7858 67.9824 80.7461 67.9824C81.9749 67.9824 83.0085 68.2184 83.8467 68.6904C84.6849 69.1624 85.3319 69.8542 85.7876 70.7656C86.2433 71.6771 86.5078 72.7879 86.5811 74.0981H83.627C83.5863 73.2111 83.4642 72.5031 83.2607 71.9741C83.0654 71.437 82.7643 71.0505 82.3574 70.8145C81.9587 70.5785 81.4215 70.4604 80.7461 70.4604C80.1846 70.4604 79.7004 70.5662 79.2935 70.7778C78.8947 70.9894 78.5651 71.3068 78.3047 71.73C78.0524 72.145 77.8612 72.6699 77.731 73.3047C77.6089 73.9313 77.5479 74.6678 77.5479 75.5142V78.688C77.5479 79.5018 77.6007 80.222 77.7065 80.8486C77.8123 81.4753 77.9832 82.0083 78.2192 82.4478C78.4552 82.8791 78.7686 83.2087 79.1592 83.4365C79.5498 83.6562 80.0381 83.7661 80.624 83.7661C81.3239 83.7661 81.8813 83.6562 82.2964 83.4365C82.7196 83.2168 83.0329 82.8465 83.2363 82.3257C83.4398 81.8049 83.5659 81.0968 83.6147 80.2017ZM88.5342 79.9331V78.8711C88.5342 77.8457 88.6603 76.9383 88.9126 76.1489C89.1649 75.3595 89.5229 74.7004 89.9868 74.1714C90.4588 73.6343 91.0122 73.2314 91.647 72.9629C92.2817 72.6862 92.9816 72.5479 93.7466 72.5479C94.5278 72.5479 95.2358 72.6862 95.8706 72.9629C96.5135 73.2314 97.0669 73.6343 97.5308 74.1714C98.0028 74.7004 98.3649 75.3595 98.6172 76.1489C98.8695 76.9383 98.9956 77.8457 98.9956 78.8711V79.9331C98.9956 80.9585 98.8695 81.8659 98.6172 82.6553C98.3649 83.4447 98.0028 84.1079 97.5308 84.645C97.0669 85.174 96.5176 85.5728 95.8828 85.8413C95.248 86.1099 94.5441 86.2441 93.771 86.2441C93.006 86.2441 92.3021 86.1099 91.6592 85.8413C91.0244 85.5728 90.471 85.174 89.999 84.645C89.527 84.1079 89.1649 83.4447 88.9126 82.6553C88.6603 81.8659 88.5342 80.9585 88.5342 79.9331ZM91.3784 78.8711V79.9331C91.3784 80.5923 91.4354 81.1701 91.5493 81.6665C91.6632 82.1548 91.826 82.5617 92.0376 82.8872C92.2492 83.2127 92.5015 83.4569 92.7944 83.6196C93.0874 83.7824 93.4129 83.8638 93.771 83.8638C94.1698 83.8638 94.5156 83.7824 94.8086 83.6196C95.1097 83.4569 95.3579 83.2127 95.5532 82.8872C95.7567 82.5617 95.9072 82.1548 96.0049 81.6665C96.1025 81.1701 96.1514 80.5923 96.1514 79.9331V78.8711C96.1514 78.2201 96.0944 77.6504 95.9805 77.1621C95.8665 76.6657 95.7038 76.2547 95.4922 75.9292C95.2806 75.5955 95.0243 75.3473 94.7231 75.1846C94.4302 75.0218 94.1047 74.9404 93.7466 74.9404C93.3966 74.9404 93.0752 75.0218 92.7822 75.1846C92.4974 75.3473 92.2492 75.5955 92.0376 75.9292C91.826 76.2547 91.6632 76.6657 91.5493 77.1621C91.4354 77.6504 91.3784 78.2201 91.3784 78.8711ZM104.293 75.3433V86H101.449V72.792H104.159L104.293 75.3433ZM107.479 72.7065L107.467 75.5142C107.305 75.4735 107.13 75.4491 106.942 75.4409C106.763 75.4246 106.584 75.4165 106.405 75.4165C106.015 75.4165 105.677 75.4857 105.392 75.624C105.107 75.7624 104.867 75.9618 104.672 76.2222C104.477 76.4826 104.322 76.7959 104.208 77.1621C104.102 77.5283 104.037 77.9434 104.013 78.4072L103.402 78.4316C103.402 77.6016 103.467 76.8325 103.598 76.1245C103.728 75.4084 103.923 74.7858 104.184 74.2568C104.452 73.7197 104.786 73.3006 105.185 72.9995C105.583 72.6984 106.047 72.5479 106.576 72.5479C106.723 72.5479 106.889 72.5641 107.077 72.5967C107.264 72.6292 107.398 72.6659 107.479 72.7065ZM114.242 86.2441C113.388 86.2441 112.627 86.118 111.959 85.8657C111.292 85.6053 110.727 85.2228 110.263 84.7183C109.799 84.2056 109.445 83.5789 109.201 82.8384C108.957 82.0897 108.834 81.223 108.834 80.2383V78.9688C108.834 77.8538 108.961 76.8936 109.213 76.0879C109.473 75.2741 109.831 74.6068 110.287 74.0859C110.743 73.5651 111.28 73.1785 111.898 72.9263C112.525 72.674 113.205 72.5479 113.937 72.5479C114.767 72.5479 115.487 72.6821 116.098 72.9507C116.708 73.2192 117.208 73.6221 117.599 74.1592C117.998 74.6963 118.291 75.3595 118.478 76.1489C118.673 76.9383 118.771 77.8457 118.771 78.8711V80.2993H110.202V78.1509H115.963V77.8457C115.947 77.2435 115.874 76.7267 115.744 76.2954C115.613 75.856 115.402 75.5223 115.109 75.2944C114.824 75.0584 114.429 74.9404 113.925 74.9404C113.559 74.9404 113.233 75.0096 112.948 75.1479C112.663 75.2863 112.427 75.5101 112.24 75.8193C112.061 76.1286 111.923 76.5436 111.825 77.0645C111.728 77.5771 111.679 78.2119 111.679 78.9688V80.2383C111.679 80.8975 111.736 81.4549 111.85 81.9106C111.972 82.3664 112.151 82.7407 112.387 83.0337C112.623 83.3185 112.908 83.5301 113.241 83.6685C113.583 83.7987 113.978 83.8638 114.425 83.8638C115.084 83.8638 115.65 83.7417 116.122 83.4976C116.602 83.2453 117.017 82.9198 117.367 82.521L118.625 84.2666C118.389 84.584 118.071 84.8973 117.672 85.2065C117.274 85.5076 116.789 85.7559 116.22 85.9512C115.658 86.1465 114.999 86.2441 114.242 86.2441ZM127.414 70.668L123.117 86H120.016L125.656 68.2266H127.584L127.414 70.668ZM130.844 86L126.535 70.668L126.327 68.2266H128.292L133.957 86H130.844ZM130.917 79.396V81.8862H122.641V79.396H130.917ZM138.278 75.3311V91.0781H135.446V72.792H138.046L138.278 75.3311ZM145.382 78.8711V79.9209C145.382 80.9544 145.289 81.8659 145.102 82.6553C144.914 83.4447 144.638 84.1079 144.271 84.645C143.913 85.174 143.47 85.5728 142.941 85.8413C142.412 86.1099 141.793 86.2441 141.085 86.2441C140.418 86.2441 139.836 86.0977 139.34 85.8047C138.852 85.5117 138.441 85.1007 138.107 84.5718C137.773 84.0428 137.505 83.4162 137.301 82.6919C137.106 81.9595 136.964 81.1619 136.874 80.2993V78.688C136.964 77.7765 137.102 76.9465 137.289 76.1978C137.484 75.4409 137.749 74.7899 138.083 74.2446C138.424 73.6994 138.839 73.2803 139.328 72.9873C139.816 72.6943 140.398 72.5479 141.073 72.5479C141.781 72.5479 142.404 72.674 142.941 72.9263C143.478 73.1785 143.926 73.5651 144.284 74.0859C144.65 74.6068 144.923 75.266 145.102 76.0635C145.289 76.8529 145.382 77.7887 145.382 78.8711ZM142.538 79.9209V78.8711C142.538 78.1956 142.493 77.6138 142.404 77.1255C142.322 76.6291 142.184 76.2222 141.989 75.9048C141.802 75.5874 141.562 75.3514 141.269 75.1968C140.984 75.0422 140.63 74.9648 140.207 74.9648C139.832 74.9648 139.503 75.0422 139.218 75.1968C138.933 75.3514 138.693 75.5671 138.498 75.8438C138.302 76.1123 138.148 76.4338 138.034 76.8081C137.92 77.1743 137.847 77.5731 137.814 78.0044V80.9951C137.887 81.516 138.009 81.9961 138.18 82.4355C138.351 82.8669 138.599 83.2127 138.925 83.4731C139.258 83.7336 139.694 83.8638 140.231 83.8638C140.646 83.8638 141 83.7824 141.293 83.6196C141.586 83.4569 141.822 83.2127 142.001 82.8872C142.188 82.5617 142.322 82.1548 142.404 81.6665C142.493 81.1701 142.538 80.5882 142.538 79.9209ZM150.631 75.3311V91.0781H147.799V72.792H150.399L150.631 75.3311ZM157.736 78.8711V79.9209C157.736 80.9544 157.642 81.8659 157.455 82.6553C157.268 83.4447 156.991 84.1079 156.625 84.645C156.267 85.174 155.823 85.5728 155.294 85.8413C154.765 86.1099 154.147 86.2441 153.439 86.2441C152.772 86.2441 152.19 86.0977 151.693 85.8047C151.205 85.5117 150.794 85.1007 150.46 84.5718C150.127 84.0428 149.858 83.4162 149.655 82.6919C149.459 81.9595 149.317 81.1619 149.228 80.2993V78.688C149.317 77.7765 149.455 76.9465 149.643 76.1978C149.838 75.4409 150.102 74.7899 150.436 74.2446C150.778 73.6994 151.193 73.2803 151.681 72.9873C152.169 72.6943 152.751 72.5479 153.427 72.5479C154.135 72.5479 154.757 72.674 155.294 72.9263C155.832 73.1785 156.279 73.5651 156.637 74.0859C157.003 74.6068 157.276 75.266 157.455 76.0635C157.642 76.8529 157.736 77.7887 157.736 78.8711ZM154.892 79.9209V78.8711C154.892 78.1956 154.847 77.6138 154.757 77.1255C154.676 76.6291 154.538 76.2222 154.342 75.9048C154.155 75.5874 153.915 75.3514 153.622 75.1968C153.337 75.0422 152.983 74.9648 152.56 74.9648C152.186 74.9648 151.856 75.0422 151.571 75.1968C151.286 75.3514 151.046 75.5671 150.851 75.8438C150.656 76.1123 150.501 76.4338 150.387 76.8081C150.273 77.1743 150.2 77.5731 150.167 78.0044V80.9951C150.241 81.516 150.363 81.9961 150.534 82.4355C150.705 82.8669 150.953 83.2127 151.278 83.4731C151.612 83.7336 152.047 83.8638 152.584 83.8638C153 83.8638 153.354 83.7824 153.646 83.6196C153.939 83.4569 154.175 83.2127 154.354 82.8872C154.542 82.5617 154.676 82.1548 154.757 81.6665C154.847 81.1701 154.892 80.5882 154.892 79.9209Z" fill="#25DA67"/>
<g filter="url(#filter0_d_54_153)">
<circle cx="21.5" cy="63.5" r="17.5" fill="#25DA67"/>
</g>
<g filter="url(#filter1_d_54_153)">
<circle cx="201.5" cy="63.5" r="17.5" fill="#25DA67"/>
</g>
<line x1="38.9897" y1="129.5" x2="183.99" y2="128.5" stroke="#25DA67" stroke-width="3" stroke-dasharray="8 8"/>
<line x1="38.9897" y1="2.50004" x2="183.99" y2="1.50004" stroke="#25DA67" stroke-width="3" stroke-dasharray="8 8"/>
<defs>
<filter id="filter0_d_54_153" x="0" y="46" width="43" height="43" filterUnits="userSpaceOnUse" color-interpolation-filters="sRGB">
<feFlood flood-opacity="0" result="BackgroundImageFix"/>
<feColorMatrix in="SourceAlpha" type="matrix" values="0 0 0 0 0 0 0 0 0 0 0 0 0 0 0 0 0 0 127 0" result="hardAlpha"/>
<feOffset dy="4"/>
<feGaussianBlur stdDeviation="2"/>
<feComposite in2="hardAlpha" operator="out"/>
<feColorMatrix type="matrix" values="0 0 0 0 0 0 0 0 0 0 0 0 0 0 0 0 0 0 0.25 0"/>
<feBlend mode="normal" in2="BackgroundImageFix" result="effect1_dropShadow_54_153"/>
<feBlend mode="normal" in="SourceGraphic" in2="effect1_dropShadow_54_153" result="shape"/>
</filter>
<filter id="filter1_d_54_153" x="180" y="46" width="43" height="43" filterUnits="userSpaceOnUse" color-interpolation-filters="sRGB">
<feFlood flood-opacity="0" result="BackgroundImageFix"/>
<feColorMatrix in="SourceAlpha" type="matrix" values="0 0 0 0 0 0 0 0 0 0 0 0 0 0 0 0 0 0 127 0" result="hardAlpha"/>
<feOffset dy="4"/>
<feGaussianBlur stdDeviation="2"/>
<feComposite in2="hardAlpha" operator="out"/>
<feColorMatrix type="matrix" values="0 0 0 0 0 0 0 0 0 0 0 0 0 0 0 0 0 0 0.25 0"/>
<feBlend mode="normal" in2="BackgroundImageFix" result="effect1_dropShadow_54_153"/>
<feBlend mode="normal" in="SourceGraphic" in2="effect1_dropShadow_54_153" result="shape"/>
</filter>
</defs>
</svg>
