<svg width="407" height="345" viewBox="0 0 407 345" fill="none" xmlns="http://www.w3.org/2000/svg">
<g clip-path="url(#clip0_405_3)">
<path d="M414.697 132.472L416.922 21.2008C391.347 25.8436 370.747 49.9877 370.228 75.9279C369.709 101.869 389.327 126.815 414.697 132.472Z" fill="#8C91FF"/>
<path d="M82.473 359.894C80.3143 346.698 86.5499 332.505 97.7385 325.151C108.926 317.797 124.86 316.675 136.153 323.868C145.83 316.03 158.086 311.418 170.54 310.929C182.993 310.44 196.586 314.343 206.849 321.398C209.291 311.476 215.359 302.485 223.655 296.5C231.952 290.516 240.958 287.343 251.162 288.142C261.249 254.217 284.484 224.371 314.927 206.235C345.37 188.098 382.718 181.853 417.422 189.095V369.485L82.473 359.894Z" fill="#8C91FF"/>
<path d="M216.257 206.68C216.306 206.987 216.365 207.291 216.43 207.595C217.95 208.079 219.471 208.563 220.992 209.047C219.727 209.437 218.462 209.827 217.198 210.219C217.737 211.655 218.454 213.026 219.362 214.277C219.524 214.502 219.703 214.716 219.877 214.932C221.534 214.691 223.191 214.448 224.848 214.207C223.669 214.973 222.489 215.739 221.309 216.504C225.523 220.588 231.798 222.617 237.667 221.586C238.002 215.736 235.933 209.673 232.526 204.868C231.734 206.14 230.941 207.414 230.149 208.687C230.267 206.576 230.384 204.464 230.501 202.352C229.832 201.62 229.125 200.933 228.382 200.291C223.301 195.901 215.21 200.111 216.257 206.68Z" fill="#FFB13C"/>
<path d="M242.956 223.743C235.046 220.969 228.297 215.171 224.455 207.851" stroke="#2B2C34" stroke-width="1.33333" stroke-miterlimit="10" stroke-linecap="round" stroke-linejoin="round"/>
<path d="M364.873 140.557C364.824 140.25 364.765 139.946 364.7 139.642C363.18 139.158 361.66 138.674 360.138 138.19C361.403 137.8 362.668 137.41 363.932 137.018C363.393 135.582 362.676 134.211 361.768 132.96C361.606 132.735 361.428 132.521 361.254 132.305C359.596 132.546 357.939 132.788 356.282 133.03C357.461 132.264 358.641 131.498 359.821 130.733C355.607 126.65 349.332 124.62 343.463 125.651C343.128 131.501 345.197 137.564 348.604 142.369C349.397 141.096 350.189 139.823 350.981 138.55C350.863 140.662 350.746 142.773 350.629 144.885C351.298 145.617 352.005 146.304 352.748 146.946C357.829 151.336 365.92 147.127 364.873 140.557Z" fill="#7DFF7A"/>
<path d="M338.175 123.494C346.084 126.268 352.833 132.066 356.675 139.386" stroke="#2B2C34" stroke-width="1.33333" stroke-miterlimit="10" stroke-linecap="round" stroke-linejoin="round"/>
<path d="M128 295.273C128.23 295.483 128.465 295.686 128.705 295.884C130.198 295.32 131.69 294.757 133.184 294.193C132.435 295.283 131.687 296.374 130.939 297.464C132.256 298.256 133.67 298.886 135.161 299.303C135.428 299.379 135.7 299.436 135.972 299.498C137.121 298.281 138.269 297.064 139.417 295.847C138.969 297.178 138.521 298.51 138.073 299.842C143.916 300.43 150.097 298.131 154.055 293.684C150.678 288.891 145.283 285.422 139.624 283.767C139.794 285.257 139.966 286.746 140.137 288.235C138.915 286.507 137.693 284.779 136.471 283.052C135.491 282.893 134.509 282.793 133.528 282.75C126.814 282.458 123.091 290.774 128 295.273Z" fill="#46EA56"/>
<path d="M159.542 292.096C151.617 294.825 142.72 294.465 135.154 291.109" stroke="#2B2C34" stroke-width="1.33333" stroke-miterlimit="10" stroke-linecap="round" stroke-linejoin="round"/>
<path d="M288.55 174.123C288.55 174.949 289.221 175.617 290.047 175.617C290.873 175.617 291.543 174.949 291.543 174.123C291.543 173.299 290.873 172.63 290.047 172.63C289.221 172.63 288.55 173.299 288.55 174.123Z" fill="#58E4C2"/>
<path d="M336.678 209.576C336.678 210.4 337.348 211.069 338.174 211.069C339 211.069 339.671 210.4 339.671 209.576C339.671 208.751 339 208.082 338.174 208.082C337.348 208.082 336.678 208.751 336.678 209.576Z" fill="#46EA56"/>
<path d="M345.928 81.3534C345.928 82.1778 346.599 82.8469 347.425 82.8469C348.251 82.8469 348.921 82.1778 348.921 81.3534C348.921 80.528 348.251 79.8599 347.425 79.8599C346.599 79.8599 345.928 80.528 345.928 81.3534Z" fill="#2B2C34"/>
<path d="M204.099 257.586C204.099 258.411 204.769 259.08 205.595 259.08C206.421 259.08 207.091 258.411 207.091 257.586C207.091 256.762 206.421 256.093 205.595 256.093C204.769 256.093 204.099 256.762 204.099 257.586Z" fill="#46EA56"/>
<path d="M196.047 304.331C196.047 305.155 196.717 305.824 197.543 305.824C198.369 305.824 199.039 305.155 199.039 304.331C199.039 303.506 198.369 302.837 197.543 302.837C196.717 302.837 196.047 303.506 196.047 304.331Z" stroke="#2B2C34" stroke-width="1.33333" stroke-miterlimit="10" stroke-linecap="round" stroke-linejoin="round"/>
<path d="M52.0862 328.814C52.0862 329.638 52.7566 330.307 53.5825 330.307C54.4085 330.307 55.0789 329.638 55.0789 328.814C55.0789 327.99 54.4085 327.32 53.5825 327.32C52.7566 327.32 52.0862 327.99 52.0862 328.814Z" fill="#46EA56"/>
<path d="M39.8521 313.598C39.8521 314.423 40.5224 315.092 41.3484 315.092C42.1744 315.092 42.8447 314.423 42.8447 313.598C42.8447 312.774 42.1744 312.105 41.3484 312.105C40.5224 312.105 39.8521 312.774 39.8521 313.598Z" stroke="#2B2C34" stroke-width="1.33333" stroke-miterlimit="10" stroke-linecap="round" stroke-linejoin="round"/>
<path d="M172.138 333.98C172.138 334.804 172.808 335.473 173.634 335.473C174.46 335.473 175.13 334.804 175.13 333.98C175.13 333.155 174.46 332.486 173.634 332.486C172.808 332.486 172.138 333.155 172.138 333.98Z" fill="#58E4C2"/>
<path d="M222.959 334.048C222.959 334.872 223.629 335.541 224.455 335.541C225.281 335.541 225.952 334.872 225.952 334.048C225.952 333.223 225.281 332.554 224.455 332.554C223.629 332.554 222.959 333.223 222.959 334.048Z" fill="#46EA56"/>
<path d="M385.695 64.8651C385.695 65.6895 386.366 66.3586 387.192 66.3586C388.018 66.3586 388.688 65.6895 388.688 64.8651C388.688 64.0406 388.018 63.3716 387.192 63.3716C386.366 63.3716 385.695 64.0406 385.695 64.8651Z" fill="#46EA56"/>
<path d="M318.165 183.084L323.348 174.123H312.982L318.165 183.084Z" stroke="#2B2C34" stroke-width="1.33333" stroke-miterlimit="10" stroke-linecap="round" stroke-linejoin="round"/>
<path d="M27.6617 329.196L25.6706 319.041L17.8548 325.841L27.6617 329.196Z" fill="#58E4C2"/>
<path d="M192.4 259.776L182.127 258.384L186.056 267.96L192.4 259.776Z" fill="#2B2C34"/>
<path d="M358.056 184.089C357.152 177.741 356.249 171.393 355.346 165.045C349.792 159.426 343.997 154.032 337.963 148.893C341.551 166.36 346.49 183.543 352.678 200.267C356.184 202.873 359.688 205.479 363.193 208.085C360.545 207.723 357.897 207.36 355.25 206.998C358.597 215.512 362.268 223.899 366.257 232.134C371.873 235.969 377.489 239.803 383.105 243.639C379.261 243.311 375.415 242.982 371.57 242.654C384.814 267.847 401.048 291.473 419.924 312.793L427.825 301.918C418.815 253.059 395.247 207.945 361.605 171.592C360.422 175.759 359.239 179.924 358.056 184.089Z" fill="#46EA56"/>
<path d="M409.036 279.77C394.256 252.789 379.477 225.807 364.697 198.826" stroke="#2B2C34" stroke-width="1.33333" stroke-miterlimit="10" stroke-linecap="round" stroke-linejoin="round"/>
<path d="M296.113 209.138C294.833 203.584 293.552 198.029 292.272 192.475C279.07 186.202 265.399 180.917 251.368 176.759C259.889 193.926 269.734 210.422 280.721 226.138C287.982 228.043 295.242 229.947 302.503 231.852C297.066 232.489 291.63 233.128 286.194 233.766C295.599 246.56 305.775 258.798 316.638 270.407C324.058 270.748 331.478 271.089 338.896 271.43C333.705 273.417 328.514 275.404 323.322 277.391C353.204 307.851 387.874 333.686 425.623 353.474L430.634 329.487C403.362 272.609 356.653 225.445 300.564 196.561C299.08 200.753 297.597 204.946 296.113 209.138Z" fill="#58E4C2"/>
<path d="M412.019 327.918C376.501 292.933 340.982 257.948 305.463 222.963" stroke="#2B2C34" stroke-width="1.33333" stroke-miterlimit="10" stroke-linecap="round" stroke-linejoin="round"/>
<path d="M303.196 281.232C301.064 275.909 298.934 270.587 296.802 265.264C285.62 260.997 274.178 257.417 262.554 254.574C262.816 258.456 263.08 262.336 263.343 266.216C261.481 261.959 259.618 257.703 257.757 253.446C248.706 251.399 239.555 249.787 230.339 248.651C237.829 263.318 247.959 276.514 259.633 288.372C265.607 287.828 271.582 287.284 277.556 286.74C273.513 289.172 269.47 291.605 265.426 294.038C277.23 305.128 290.333 314.967 303.804 323.614C333.393 342.612 366.085 356.19 398.648 369.485L415.176 349.06C385.569 313.75 347.141 286.02 304.556 268.358C304.103 272.649 303.649 276.94 303.196 281.232Z" fill="#FFD94B"/>
<path d="M390.803 347.856C353.836 326.801 316.868 305.745 279.901 284.689" stroke="#2B2C34" stroke-width="1.33333" stroke-miterlimit="10" stroke-linecap="round" stroke-linejoin="round"/>
<path d="M269.806 345.845C267.021 347.948 264.236 350.052 261.451 352.155C292.054 372.551 328.831 383.596 365.901 382.366L358.139 351.598C336.307 337.864 312.378 327.496 287.459 320.8C288.512 325.627 289.566 330.454 290.619 335.281C287.611 329.953 284.602 324.624 281.593 319.297C274.59 317.587 267.516 316.165 260.395 315.041C261.237 319.046 262.079 323.051 262.921 327.056C258.93 322.611 254.94 318.167 250.949 313.723C240.209 312.428 229.389 311.805 218.568 311.879C229.524 326.399 242.737 339.024 257.494 349.435C261.598 348.239 265.702 347.042 269.806 345.845Z" fill="#7DFF7A"/>
<path d="M347.206 370.979C313.733 356.11 280.261 341.242 246.789 326.373" stroke="#2B2C34" stroke-width="1.33333" stroke-miterlimit="10" stroke-linecap="round" stroke-linejoin="round"/>
<path d="M387.245 104.822C385.188 104.904 383.13 104.987 381.072 105.07C389.722 133.51 404.307 160.158 423.736 182.688L442.217 180.384C431.875 151.577 416.108 124.737 396.077 101.575C395.232 104.101 394.388 106.626 393.544 109.151C392.719 104.752 391.893 100.353 391.068 95.9543C385.988 90.4273 380.66 85.1274 375.096 80.0853C376.416 87.6145 378.156 95.0671 380.285 102.408C382.605 103.213 384.925 104.017 387.245 104.822Z" fill="#FFB13C"/>
<path d="M414.159 150.678C406.456 137.11 398.752 123.543 391.049 109.975" stroke="#2B2C34" stroke-width="1.33333" stroke-miterlimit="10" stroke-linecap="round" stroke-linejoin="round"/>
<path d="M388.626 149.89C388.529 147.485 388.431 145.08 388.333 142.675C384.205 137.541 379.772 132.639 375.017 128.018C375.85 137.01 377.866 145.868 380.925 154.357C383.271 155.817 385.618 157.278 387.964 158.737C386.136 158.625 384.31 158.512 382.482 158.401C390.567 178.346 404.453 195.983 422.278 208.114C415.389 185.912 405.17 164.727 391.19 146.33C390.336 147.517 389.481 148.704 388.626 149.89Z" fill="#FFD94B"/>
<path d="M408.337 191.074C402.52 181.876 396.703 172.678 390.886 163.48" stroke="#2B2C34" stroke-width="1.33333" stroke-miterlimit="10" stroke-linecap="round" stroke-linejoin="round"/>
<path d="M84.9736 326.071C83.3795 327.372 81.7854 328.673 80.1913 329.974C104.236 347.507 131.944 360.043 161.043 366.385L174.42 353.451C148.802 336.642 120.033 324.659 90.075 318.175C90.921 320.701 91.7679 323.226 92.6138 325.75C89.3049 322.731 85.9951 319.711 82.6852 316.692C75.2963 315.325 67.8467 314.287 60.364 313.598C65.9543 318.822 71.8349 323.732 77.9588 328.32C80.2971 327.571 82.6353 326.821 84.9736 326.071Z" fill="#FFB13C"/>
<path d="M134.087 346.69C122.332 340.793 110.576 334.896 98.8213 329" stroke="#2B2C34" stroke-width="1.33333" stroke-miterlimit="10" stroke-linecap="round" stroke-linejoin="round"/>
</g>
<defs>
<clipPath id="clip0_405_3">
<rect width="407" height="345" fill="white" transform="matrix(-1 0 0 -1 407 345)"/>
</clipPath>
</defs>
</svg>
